<?xml version="1.0" encoding="utf-8"?>
<!-- Generator: Adobe Illustrator 22.0.1, SVG Export Plug-In . SVG Version: 6.00 Build 0)  -->
<svg version="1.1" id="Слой_1" xmlns="http://www.w3.org/2000/svg" xmlns:xlink="http://www.w3.org/1999/xlink" x="0px" y="0px"
	 viewBox="0 0 200 100" style="enable-background:new 0 0 200 100;" xml:space="preserve">
<style type="text/css">
	.st0{fill:#363B66;}
</style>
<g>
	<path class="st0" d="M93.6,21.4c-2.1-2.1-5.1-3.4-8.1-3.4c-3,0-5.8,1.1-8.1,3.4l-6.8,6.8V5.8c0-1.3-1.1-2.4-2.4-2.4H25.7
		c-0.8,0-1.3,0.2-1.9,0.8L3.8,24.3C3.2,24.8,3,25.4,3,26.1v68.1c0,1.3,1.1,2.4,2.6,2.4h62.6c1.3,0,2.4-1.1,2.4-2.4V60.4l22.9-22.9
		c2.1-2.1,3.4-5.1,3.4-8.1C97,26.5,95.9,23.5,93.6,21.4 M46.8,74.7l-8.5,2.3l2.3-8.5L46.8,74.7z M51.7,72.4l-9-9l32.1-32.1l9,9
		L51.7,72.4z M23.3,12v11.7H11.6L23.3,12z M65.6,91.6H8.1v-63h17.7c1.3,0,2.4-1.1,2.4-2.4V8.5h37.4v24.8L37.4,61.7l0,0
		c-0.4,0.4-0.6,0.8-0.8,1.1l-4.5,16.9c-0.2,0.9,0,1.9,0.8,2.4c0.6,0.6,1.1,0.8,1.9,0.8c0.2,0,0.4,0,0.6,0l16.9-4.5
		c0.4-0.2,0.9-0.4,1.1-0.8l0,0l12.2-12.2V91.6z M90,34l-2.6,2.6l-9-9L81,25c1.1-1.1,2.8-1.9,4.5-1.9c1.7,0,3.2,0.6,4.5,1.9
		c1.1,1.1,1.9,2.8,1.9,4.5C91.9,31.2,91.4,32.7,90,34"/>
	<path class="st0" d="M24.4,78h-7.3c-1.3,0-2.4,1.1-2.4,2.4s1.1,2.4,2.4,2.4h7.3c1.3,0,2.4-1.1,2.4-2.4C27.1,79.2,25.9,78,24.4,78"
		/>
	<path class="st0" d="M25.7,67.9h-8.6c-1.3,0-2.4,1.1-2.4,2.4s1.1,2.4,2.4,2.4h8.6c1.3,0,2.4-1.1,2.4-2.4
		C28.4,69,27.3,67.9,25.7,67.9"/>
	<path class="st0" d="M28.4,57.7H17.1c-1.3,0-2.4,1.1-2.4,2.4s1.1,2.4,2.4,2.4h11.1c1.3,0,2.4-1.1,2.4-2.4
		C30.8,58.9,29.7,57.7,28.4,57.7"/>
	<path class="st0" d="M17.1,52.7h18.4c1.3,0,2.4-1.1,2.4-2.4c0-1.3-1.1-2.4-2.4-2.4H17.1c-1.3,0-2.4,1.1-2.4,2.4
		S15.8,52.7,17.1,52.7"/>
	<path class="st0" d="M17.1,42.5h28.8c1.3,0,2.4-1.1,2.4-2.4c0-1.3-1.1-2.4-2.4-2.4H17.1c-1.3,0-2.4,1.1-2.4,2.4
		S15.8,42.5,17.1,42.5"/>
	<path class="st0" d="M35.9,32.5h21.8c1.3,0,2.4-1.1,2.4-2.4s-1.1-2.4-2.4-2.4H35.9c-1.3,0-2.4,1.1-2.4,2.4
		C33.3,31.2,34.4,32.5,35.9,32.5"/>
	<path class="st0" d="M35.9,22.4h21.8c1.3,0,2.4-1.1,2.4-2.4c0-1.3-1.1-2.4-2.4-2.4H35.9c-1.3,0-2.4,1.1-2.4,2.4
		C33.3,21.3,34.4,22.4,35.9,22.4"/>
</g>
<g>
	<path class="st0" d="M185.6,56.6l-18.2-16.2c-0.9-0.9-2.4-0.8-3.4,0.2c-0.9,0.9-0.8,2.4,0.2,3.4l16.2,14.5l-16.2,14.3
		c-0.9,0.9-1.1,2.4-0.2,3.4c0.6,0.6,1.1,0.8,1.9,0.8c0.6,0,1.1-0.2,1.7-0.6l18.2-16.2c0.6-0.4,0.8-1.1,0.8-1.9
		C186.3,57.7,186,57,185.6,56.6"/>
	<path class="st0" d="M138,40.4c-0.9-0.9-2.4-1.1-3.4-0.2l-18.2,16.2c-0.6,0.4-0.8,1.1-0.8,1.9s0.4,1.3,0.8,1.9l18.2,16.2
		c0.4,0.4,0.9,0.6,1.7,0.6s1.3-0.2,1.9-0.8c0.9-0.9,0.8-2.4-0.2-3.4l-16.2-14.5L138,43.8C139,43,139,41.5,138,40.4"/>
	<path class="st0" d="M156.8,39.1c-1.3-0.4-2.6,0.4-3,1.7l-10.2,33.5c-0.4,1.3,0.4,2.6,1.7,3c0.2,0,0.4,0.2,0.8,0.2
		c1.1,0,2.1-0.8,2.3-1.7l10.2-33.5C158.7,40.8,158,39.5,156.8,39.1"/>
	<path class="st0" d="M195.6,3h-89.1c-1.3,0-2.4,1.1-2.4,2.4v89.1c0,1.3,1.1,2.4,2.4,2.4h89.1c1.3,0,2.4-1.1,2.4-2.4V5.4
		C198,4.1,196.9,3,195.6,3 M193.1,17.5h-9.6V7.9h9.6V17.5z M123.4,7.9h55.5v9.6h-55.5V7.9z M108.9,7.9h9.6v9.6h-9.6V7.9z
		 M108.9,22.4h84.4v69.9h-84.4V22.4z"/>
</g>
</svg>
