<?xml version="1.0" encoding="utf-8"?>
<!-- Generator: Adobe Illustrator 22.0.1, SVG Export Plug-In . SVG Version: 6.00 Build 0)  -->
<svg version="1.1" id="Слой_1" xmlns="http://www.w3.org/2000/svg" xmlns:xlink="http://www.w3.org/1999/xlink" x="0px" y="0px"
	 viewBox="0 0 600 100" style="enable-background:new 0 0 600 100;" xml:space="preserve">
<style type="text/css">
	.st0{fill:#FFFFFF;}
</style>
<g id="Слой_2_1_">
	<g>
		<g>
			<path class="st0" d="M578.9,71h-6v-5.3h-4.2V71h-6c-1.2,0-2.1,1.1-2.1,2.1c0,1.2,0.9,2.1,2.1,2.1h16.2c1.2,0,2.1-1.1,2.1-2.1
				C581,72,580.1,71,578.9,71z M542.6,58.6v2.6c0,0.9,0.7,1.8,1.8,1.8h52.9c0.9,0,1.8-0.7,1.8-1.8v-2.6H542.6z M570.8,31.6
				c4.6,0,8.8,1.2,12.5,3.5l1.4-1.9c0.5-0.7,1.4-0.7,1.9-0.4c0.7,0.5,0.7,1.4,0.4,1.9l-1.4,1.9c5.6,4.4,9.2,11.1,9.3,18.9h4.1V26
				c0-0.9-0.7-1.8-1.8-1.8h-52.9c-0.9,0-1.8,0.7-1.8,1.8v29.8h4.1C546.8,42.4,557.6,31.6,570.8,31.6z M583.1,54.7
				c-0.2-0.2-0.2-0.4-0.2-0.5c-0.5-3.2-2.1-5.8-4.4-7.6l-4.2,5.8c0.7,0.5,1.2,1.4,1.6,2.3H583.1z M570.8,51.2c0.4,0,0.5,0,0.9,0
				l4.6-6.2c-1.6-0.9-3.5-1.2-5.5-1.2c-3.5,0-6.7,1.4-9,3.9l0,0c0,0.2-0.2,0.2-0.2,0.4c-1.4,1.8-2.5,3.9-2.8,6.2
				c0,0.2-0.2,0.4-0.2,0.5h7.2C566.4,52.6,568.5,51.2,570.8,51.2z M592.1,54.7c-0.4-6.3-3.5-11.8-8.1-15.5l-3.7,5.1
				c0.2,0.2,0.2,0.2,0.4,0.4c2.6,2.3,4.6,5.6,5.1,9.2c0,0.4,0,0.7-0.2,1.1h6.5V54.7z M553.5,43.4L553.5,43.4
				c-2.3,3.2-3.9,7.1-4.1,11.3h6.5c-0.2-0.4-0.4-0.7-0.2-1.1c0.4-2.3,1.4-4.6,2.8-6.5L553.5,43.4z M560.9,44.5
				c2.5-2.1,5.3-3.4,8.5-3.5v-6.3c-5.5,0.4-10.4,2.8-13.9,6.5l5.1,3.7C560.6,44.9,560.7,44.7,560.9,44.5z M581.5,37.6
				c-2.8-1.6-6-2.6-9.3-2.8V41c1.9,0.2,3.9,0.7,5.6,1.8L581.5,37.6z"/>
		</g>
	</g>
</g>
<g id="Слой_2_2_">
	<g>
		<g>
			<path class="st0" d="M501.1,44.5h-1.1v16.6h1.1c1.6,0,2.8-1.2,2.8-2.8V47.1C503.8,45.7,502.5,44.5,501.1,44.5z M447.3,47.3v10.8
				c0,1.6,1.2,3,2.8,3h1.1V44.5h-1.1C448.6,44.5,447.3,45.7,447.3,47.3z M497.4,46.8c0-1.2-0.2-2.5-0.4-3.7c0-0.4-0.2-0.9-0.4-1.2
				v-3.2c0-12-9.5-21.7-21.2-21.7s-21.2,9.9-21.2,21.9V41c-0.2,0.4-0.2,0.5-0.4,0.9c-0.4,1.6-0.7,3.4-0.7,4.9v20.5
				c0,0.9,0.7,1.4,1.4,1.4h4.4c1.4,7.8,8.3,13.8,16.4,13.8c6.3,0,12-3.7,14.8-9.2c4.8-0.4,8.6-4.4,8.6-9.3h-1.6V46.8z M487.7,69
				h-10.4c-1.2,0-2.1,1.1-2.1,2.1c0,1.2,0.9,2.1,2.1,2.1h8.1c-2.3,3-5.8,4.8-9.7,4.8c-6.9,0-12.3-5.6-12.3-12.7V51.6
				c1.6-1.1,4.4-3,6.3-5.6c3,2.5,9,6.2,18.5,6.5v12.9l0,0C488.1,66.5,487.9,67.8,487.7,69z M478.7,27.6h-6.3
				c-4.8,0-9.2,1.8-12.3,4.8c2.3-6.3,8.5-10.8,15.5-10.8c7.2,0,13.6,4.8,15.9,11.3C488.2,29.7,483.7,27.6,478.7,27.6z M471.3,55.6
				H468c-1.2,0-2.1,1.1-2.1,2.1c0,1.2,0.9,2.1,2.1,2.1h3.4c1.2,0,2.1-1.1,2.1-2.1C473.4,56.7,472.4,55.6,471.3,55.6z M483.3,55.6
				H480c-1.2,0-2.1,1.1-2.1,2.1c0,1.2,0.9,2.1,2.1,2.1h3.4c1.2,0,2.1-1.1,2.1-2.1C485.4,56.7,484.4,55.6,483.3,55.6z"/>
		</g>
	</g>
</g>
<g id="Слой_3">
	<path class="st0" d="M399,29.2l-0.5,4.4c-0.2,1.4-0.4,2.8-0.7,4.2l-0.2,0.9c-0.7,4.1-1.2,7.4-1.9,10.4c-0.7,3.4-1.6,7.1-2.6,10.8
		c-0.7,2.1-1.2,3.9-1.9,5.5c-0.4,1.1-0.9,1.9-1.2,2.8c-0.5,0.9-1.1,1.8-1.9,2.8c-0.4,0.5-0.9,0.9-1.4,1.2c-0.4,0.4-1.1,0.5-1.9,0.7
		c-0.7,0.2-1.4,0-1.9-0.2c-0.5-0.2-1.1-0.5-1.6-0.9c-1.1-0.9-1.8-1.8-2.3-2.5c-0.7-0.9-1.2-1.9-1.6-2.6c-1.1-1.9-1.8-3.9-2.5-5.3
		c-0.7-1.8-1.4-3.7-2.1-5.3c-0.4-1.1-0.7-2.1-1.1-3.2c-0.9-2.5-1.8-4.9-2.6-7.2c-0.7-1.9-1.4-3.4-2.1-4.6c0-0.2-0.2-0.4-0.4-0.5
		c0,0,0-0.2-0.2-0.2c0,0,0-0.2-0.2-0.2c-1.6-2.3-3.5-2.1-4.9,1.6c-0.4,0.7-0.5,1.4-0.9,2.3l-0.9,2.1c-0.7,1.9-1.2,3.7-1.9,5.3
		c-0.9,2.1-1.6,3.5-2.5,4.9c-0.9,1.2-1.9,3-3.5,4.2c-0.9,0.7-1.6,1.1-2.5,1.4s-1.8,0.4-2.8,0.2c-0.9-0.2-1.6-0.5-2.5-0.9
		c-0.7-0.4-1.4-0.9-1.9-1.6c-1.1-1.1-2.1-2.3-3-3.9c-0.9-1.2-1.6-2.6-2.3-4.1c-1.4-3-2.6-6-3.4-8.1c-1.9-5.5-3.4-10.4-4.2-14.1
		c0-0.2,0-0.4-0.2-0.4c0-0.2,0-0.4,0.2-0.5c0.2-0.2,0.4-0.2,0.5-0.2h0.2c0.2,0,0.4,0.2,0.4,0.5c1.4,3.7,2.8,7.9,5.3,13.1
		c1.2,2.6,2.5,5.1,3.9,7.4c0.7,1.2,1.6,2.5,2.3,3.5c1.1,1.2,1.8,2.1,2.6,2.8c1.1,0.9,1.9,1.2,2.8,1.4c0.9,0,1.6-0.4,2.5-1.1
		c0.9-0.9,1.8-2.1,2.3-3.2c0.7-1.2,1.2-2.6,1.9-4.2c0.5-1.4,1.1-3,1.6-4.8l0.9-2.6c0.4-0.9,0.7-1.8,1.1-2.6c0.4-1.1,0.9-1.9,1.2-2.8
		l0,0l0,0l0,0l0,0c0.4-0.9,1.1-1.8,1.8-2.6c0.4-0.5,0.9-0.9,1.4-1.2c0.5-0.5,1.2-0.7,1.9-0.9s1.4-0.2,2.1,0c0.5,0.2,1.2,0.5,1.8,0.9
		c1.1,0.9,1.8,1.8,2.3,2.5s1.1,1.6,1.6,2.6c1.1,1.9,1.8,3.7,2.5,5.3c0.2,0.2,0.2,0.5,0.4,0.7c1.1,2.5,1.9,4.9,2.8,7.4l0.9,2.3
		c1.2,3.2,2.5,6.7,4.1,9.7c0.4,0.9,0.9,1.4,1.1,1.9c1.9,3,3.2,0.4,3.5-0.4c0.4-0.5,0.7-1.2,1.1-2.1c0.5-1.4,1.2-2.8,1.8-4.8
		c1.1-3,1.9-6.5,2.8-10.1c0.9-3.4,1.6-6.7,2.3-10.1l0.2-0.7c0.4-1.4,0.7-2.8,0.9-4.2l0.9-4.1v-0.4c0.2-0.7,0.9-1.2,1.6-1.2
		c0.9,0,1.6,0.7,1.6,1.6l0,0L399,29.2z"/>
</g>
<g id="Слой_4">
	<path class="st0" d="M281.4,46.3c-0.2-0.9-1.1-1.6-2.1-1.6c-2.8,0-5.5-1.8-6.5-4.4c-1.1-2.6-0.4-5.8,1.8-7.9
		c0.7-0.7,0.7-1.6,0.2-2.5c-1.4-1.9-3.2-3.5-5.1-5.1c-0.7-0.5-1.8-0.5-2.5,0.2c-1.9,2.1-5.3,2.8-7.9,1.8c-2.6-1.2-4.4-3.9-4.2-6.9
		c0-0.9-0.7-1.8-1.6-1.9c-2.3-0.4-4.8-0.4-7.1,0c-0.9,0.2-1.6,0.9-1.6,1.8c0.2,3-1.6,5.6-4.4,6.7c-2.6,1.1-6,0.4-7.9-1.8
		c-0.7-0.7-1.6-0.7-2.5-0.2c-1.9,1.4-3.7,3.2-5.1,5.1c-0.5,0.7-0.5,1.8,0.2,2.5c2.3,1.9,3,5.1,1.8,7.9c-1.1,2.6-3.9,4.2-6.9,4.2
		c-1.1,0-1.8,0.7-1.8,1.6c-0.4,2.5-0.4,4.8,0,7.2c0.2,0.9,1.2,1.6,2.1,1.6c2.8,0,5.5,1.6,6.5,4.4c1.1,2.6,0.4,5.8-1.8,7.9
		c-0.7,0.7-0.7,1.6-0.2,2.5c1.4,1.9,3.2,3.5,4.9,5.1c0.7,0.5,1.8,0.5,2.5-0.2c1.9-2.1,5.3-2.8,7.9-1.8c2.8,1.1,4.4,3.9,4.2,6.9
		c0,0.9,0.7,1.8,1.6,1.9c1.4,0.2,2.6,0.2,3.9,0.2c1.2,0,2.3,0,3.5-0.2c0.9-0.2,1.6-0.9,1.6-1.8c-0.2-3,1.6-5.6,4.4-6.7
		c2.6-1.1,6-0.4,7.9,1.8c0.7,0.7,1.6,0.7,2.5,0.2c1.9-1.4,3.7-3.2,5.1-5.1c0.5-0.7,0.5-1.8-0.2-2.5c-2.3-1.9-3-5.1-1.8-7.9
		c0.7-2.5,3.4-4.2,6.2-4.2h0.4c0.9,0,1.8-0.7,1.9-1.6C281.5,51,281.5,48.7,281.4,46.3z M249.8,68.1c-10.1,0-18.3-8.1-18.3-18.3
		s8.3-18.3,18.3-18.3c10.1,0,18.3,8.3,18.3,18.3c0,3.4-0.9,6.7-2.6,9.3l-7.9-7.9c0.5-1.4,0.9-2.8,0.9-4.4c0-3-1.2-5.8-3.4-7.9
		c-2.1-2.1-4.9-3.4-7.9-3.4c-1.1,0-1.9,0.2-3,0.4c-0.4,0.2-0.7,0.5-0.9,0.9c-0.2,0.4,0,0.9,0.4,1.2c0,0,3.9,4.1,5.3,5.3
		c0.2,0.2,0.2,0.5,0.2,0.5l0,0c-0.2,1.4-0.4,3.2-0.5,3.9l0,0c0,0,0,0,0,0.2c-0.7,0.2-2.5,0.5-3.9,0.5l0,0l0,0l0,0
		c-0.2,0-0.4,0-0.5-0.2c-1.4-1.4-5.1-5.1-5.1-5.1c-0.4-0.4-0.7-0.4-0.9-0.4c-0.5,0-1.1,0.4-1.2,0.9c-1.1,3.9,0,8.1,2.8,10.9
		c2.1,2.1,4.9,3.4,7.9,3.4c1.6,0,3-0.4,4.4-0.9l8.1,8.1C256.8,67.1,253.5,68.1,249.8,68.1z"/>
</g>
<g id="Слой_3_1_">
	<path class="st0" d="M165.3,31.3l-25.6,25.2l-9.9-9.7l-7.8,7.8L139.9,72l33.3-32.8L165.3,31.3z"/>
</g>
<g id="Слой_2_3_">
	<path class="st0" d="M41.3,50.7c6.2,0,11.3-4.9,11.3-11.1c0-6-5.1-10.9-11.3-10.9S30,33.6,30,39.6C30,45.7,35.2,50.7,41.3,50.7z
		 M16.1,45.2v-8.3h-5.6v8.3H2v5.5h8.5V59h5.6v-8.3h8.5v-5.5H16.1z M41.3,56.1c-7.6,0-22.4,3.5-22.4,10.9v5.6h45v-5.5
		C63.7,59.8,48.9,56.1,41.3,56.1z"/>
</g>
</svg>
