<?xml version="1.0" encoding="utf-8"?>
<!-- Generator: Adobe Illustrator 22.0.1, SVG Export Plug-In . SVG Version: 6.00 Build 0)  -->
<svg version="1.1" id="Слой_1" xmlns="http://www.w3.org/2000/svg" xmlns:xlink="http://www.w3.org/1999/xlink" x="0px" y="0px"
	 viewBox="0 0 600 100" style="enable-background:new 0 0 600 100;" xml:space="preserve">
<style type="text/css">
	.st0{fill:#3B4269;}
	.st1{clip-path:url(#SVGID_2_);fill:#97BA33;}
	.st2{clip-path:url(#SVGID_4_);fill:#FFFFFF;}
	.st3{fill:#DAB81A;}
	.st4{fill:#3DD3A1;}
	.st5{fill:#FFFFFF;}
	.st6{clip-path:url(#SVGID_6_);fill:url(#SVGID_7_);}
	.st7{clip-path:url(#SVGID_9_);fill:#7296CD;}
	.st8{clip-path:url(#SVGID_11_);fill:#FFFFFF;}
	.st9{clip-path:url(#SVGID_13_);fill:#FFFFFF;}
	.st10{clip-path:url(#SVGID_15_);fill:#FFFFFF;}
	.st11{clip-path:url(#SVGID_17_);fill:#FFFFFF;}
	.st12{fill:#6AACCE;}
</style>
<path class="st0" d="M31.8,21C15.3,21,1.7,34.6,1.7,51.1s13.6,30.1,30.1,30.1S62,67.7,62,51.1S48.4,21,31.8,21z M28.5,51.1
	c0,0.6-0.2,1.2-0.3,1.8l8.4,4.1c0.9-1.1,2.4-1.7,3.9-1.7c2.9,0,5.3,2.4,5.3,5.3c0,2.9-2.4,5.3-5.3,5.3s-5.3-2.4-5.3-5.3
	c0-0.3,0-0.6,0-0.8l-8.9-4.4c-0.9,0.6-2,1.1-3.2,1.1c-2.9,0-5.3-2.4-5.3-5.3s2.4-5.3,5.3-5.3c1.2,0,2.3,0.5,3.2,1.1l8.9-4.4
	c0-0.3,0-0.6,0-0.8c0-2.9,2.4-5.3,5.3-5.3s5.3,2.4,5.3,5.3c0,2.9-2.4,5.3-5.3,5.3c-1.5,0-2.9-0.6-3.9-1.7l-8.4,4.1
	C28.4,49.9,28.5,50.5,28.5,51.1z"/>
<g>
	<g>
		<defs>
			<rect id="SVGID_1_" x="180.5" y="21" width="60.3" height="60.3"/>
		</defs>
		<clipPath id="SVGID_2_">
			<use xlink:href="#SVGID_1_"  style="overflow:visible;"/>
		</clipPath>
		<path class="st1" d="M211.1,21c-16.3,0-29.5,13.3-29.5,29.7c0,5.1,1.4,10.2,3.9,14.8l-5,14.5c-0.2,0.3,0,0.8,0.2,1.1
			c0.3,0.2,0.6,0.3,0.9,0.3c0.2,0,0.2,0,0.3,0l16-4.2c4.2,2.1,8.7,3.2,13.4,3.2c16.3,0,29.7-13.3,29.7-29.7
			C240.8,34.3,227.5,21,211.1,21"/>
	</g>
</g>
<g>
	<g>
		<defs>
			<rect id="SVGID_3_" x="180.5" y="21" width="60.3" height="60.3"/>
		</defs>
		<clipPath id="SVGID_4_">
			<use xlink:href="#SVGID_3_"  style="overflow:visible;"/>
		</clipPath>
		<path class="st2" d="M218,32.8h-13.7c-2.1,0-3.8,1.7-3.8,3.8v27.1c0,2.1,1.7,3.8,3.8,3.8H218c2.1,0,3.8-1.7,3.8-3.8V36.5
			C221.8,34.4,220.1,32.8,218,32.8 M211.2,66.1c-1.2,0-2.1-0.9-2.1-2.1s0.9-2.1,2.1-2.1c1.2,0,2.1,0.9,2.1,2.1
			S212.5,66.1,211.2,66.1 M218.3,59c0,0.6-0.6,1.2-1.2,1.2h-11.9c-0.6,0-1.2-0.5-1.2-1.2V36.4c0-0.6,0.6-1.2,1.2-1.2h11.9
			c0.6,0,1.2,0.5,1.2,1.2V59z"/>
	</g>
</g>
<g>
	<g>
		<path class="st3" d="M120.2,21c-16.6,0-30.1,13.6-30.1,30.1s13.6,30.1,30.1,30.1s30.1-13.6,30.1-30.1S136.8,21,120.2,21z
			 M108.9,41.6h17.3l-0.2-0.2c-0.9-0.9-0.9-2.3,0-3.2s2.3-0.9,3,0l4.1,4.1l0,0l0,0l0,0l0,0c0,0,0,0,0,0.2l0,0l0,0
			c0.2,0.2,0.3,0.5,0.5,0.6c0.2,0.3,0.2,0.6,0.2,0.9v0.2l0,0l0,0c0,0.2,0,0.3,0,0.5l0,0c-0.2,0.3-0.3,0.6-0.6,0.9l0,0l-4.1,4.1
			c-0.5,0.5-0.9,0.6-1.5,0.6c-0.6,0-1.1-0.3-1.5-0.6c-0.9-0.9-0.8-2.3,0-3.2l0.2-0.3h-17.3c-1.2,0-2.1-1.1-2.1-2.3
			C106.7,42.6,107.7,41.6,108.9,41.6z M131.7,60.6h-17.5l0.2,0.3c0.9,0.9,0.9,2.3,0,3.2c-0.5,0.5-1.1,0.6-1.5,0.6
			c-0.6,0-1.1-0.2-1.5-0.6l-4.1-4.1c0,0,0,0-0.2,0c-0.3-0.3-0.5-0.6-0.6-0.9l0,0l0,0c0-0.2-0.2-0.3-0.2-0.6l0,0
			c0-0.3,0.2-0.5,0.2-0.8c0.2-0.3,0.3-0.6,0.6-0.8l0,0l4.1-4.1c0.9-0.9,2.3-0.9,3,0c0.9,0.9,0.8,2.3,0,3.2v0.2h17.3
			c1.2,0,2.1,1.1,2.1,2.3C133.8,59.6,132.9,60.6,131.7,60.6z"/>
	</g>
</g>
<g>
	<path class="st4" d="M301.5,22.5c-16.3,0-29.5,13.3-29.5,29.7c0,5.1,1.4,10.2,3.9,14.8l-5,14.5c-0.2,0.3,0,0.8,0.2,1.1
		c0.3,0.2,0.6,0.3,0.9,0.3c0.2,0,0.2,0,0.3,0l16-4.2c4.2,2.1,8.7,3.2,13.4,3.2c16.3,0,29.7-13.3,29.7-29.7
		C331.2,35.8,318,22.5,301.5,22.5"/>
</g>
<g>
	<path class="st5" d="M291.4,52.2c0,2.1-1.8,3.9-3.9,3.9s-3.9-1.8-3.9-3.9c0-2.1,1.8-3.9,3.9-3.9C289.6,48.1,291.4,49.9,291.4,52.2"
		/>
	<path class="st5" d="M305.4,52.2c0,2.1-1.8,3.9-3.9,3.9s-3.9-1.8-3.9-3.9c0-2.1,1.8-3.9,3.9-3.9C303.8,48.1,305.4,49.9,305.4,52.2"
		/>
	<path class="st5" d="M319.6,52.2c0,2.1-1.8,3.9-3.9,3.9s-3.9-1.8-3.9-3.9c0-2.1,1.8-3.9,3.9-3.9C318,48.1,319.6,49.9,319.6,52.2"/>
</g>
<g>
	<g>
		<defs>
			<path id="SVGID_5_" d="M372.4,68c-4.5-2.7-5.3-3.9-5.3-9.2V48.1c0-0.8,0.2-1.1,0.5-1.7c0.5-0.9,1.5-1.4,2.4-1.4
				c0.5,0,0.9,0.2,1.4,0.3l8.6,5c2.6,1.5,4.4,4.7,4.7,8.1v15.2c0,0.5-0.3,0.8-0.8,0.8c-0.2,0-0.3,0-0.3-0.2l0,0L372.4,68z
				 M409.7,45.4c0,0.2,0.2,0.3,0.2,0.3l0,0v13.1c-0.2,5.6-0.9,6.6-6.2,9.6l-8.7,5.1c-0.6,0.3-1.1,0.5-1.7,0.5c-1.1,0-2-0.6-2.4-1.4
				c-0.3-0.5-0.5-0.9-0.5-1.4V61.2c0-3,2-6.3,4.8-8.3l13.4-7.7l0,0C409.1,45,409.6,45,409.7,45.4 M385.2,46.8l-13.6-7.7
				c-0.3-0.2-0.5-0.6-0.3-1.1c0-0.2,0.2-0.2,0.3-0.3l0,0l11.5-6.6c5-2.6,6.3-2.6,11.6,0.5l8.7,5c0.6,0.3,0.9,0.6,1.2,1.2
				c0.5,0.9,0.5,2,0,2.9c-0.3,0.5-0.6,0.8-1.1,1.1l-8.7,5.1c-1.4,0.8-2.9,1.2-4.7,1.2C388.5,48,386.8,47.5,385.2,46.8 M388.5,22.5
				c-2,0-3.9,0.5-5.6,1.5l-16.1,9.5c-3.3,2-5.4,5.6-5.4,9.5v19.3c0,3.9,2.1,7.5,5.4,9.5l16.1,9.5c1.7,1.1,3.6,1.5,5.6,1.5l0,0
				c2,0,3.9-0.5,5.6-1.5l16.1-9.5c3.3-2,5.4-5.6,5.4-9.5V43c0-3.9-2.1-7.5-5.4-9.5L394.1,24C392.4,23,390.5,22.5,388.5,22.5z"/>
		</defs>
		<clipPath id="SVGID_6_">
			<use xlink:href="#SVGID_5_"  style="overflow:visible;"/>
		</clipPath>
		
			<linearGradient id="SVGID_7_" gradientUnits="userSpaceOnUse" x1="114.6273" y1="-39.1654" x2="114.8785" y2="-39.1654" gradientTransform="matrix(219.5379 -11.5055 -10.3552 -243.9254 -25209.6738 -8180.4878)">
			<stop  offset="0" style="stop-color:#6F00F9"/>
			<stop  offset="1" style="stop-color:#69BAC0"/>
		</linearGradient>
		<polygon class="st6" points="361.5,85.7 418.2,82.6 415.5,19.6 358.8,22.7 		"/>
	</g>
</g>
<g>
	<g>
		<defs>
			<rect id="SVGID_8_" x="451.8" y="22.5" width="60.3" height="60.3"/>
		</defs>
		<clipPath id="SVGID_9_">
			<use xlink:href="#SVGID_8_"  style="overflow:visible;"/>
		</clipPath>
		<path class="st7" d="M481.9,22.5c16.6,0,30.1,13.6,30.1,30.1s-13.6,30.1-30.1,30.1s-30.1-13.6-30.1-30.1S465.4,22.5,481.9,22.5"/>
	</g>
	<g>
		<defs>
			<rect id="SVGID_10_" x="451.8" y="22.5" width="60.3" height="60.3"/>
		</defs>
		<clipPath id="SVGID_11_">
			<use xlink:href="#SVGID_10_"  style="overflow:visible;"/>
		</clipPath>
		<polygon class="st8" points="462.2,40.9 462.2,64.4 473.6,52.7 		"/>
	</g>
	<g>
		<defs>
			<rect id="SVGID_12_" x="451.8" y="22.5" width="60.3" height="60.3"/>
		</defs>
		<clipPath id="SVGID_13_">
			<use xlink:href="#SVGID_12_"  style="overflow:visible;"/>
		</clipPath>
		<polygon class="st9" points="501.7,40.9 501.7,64.4 490.4,52.7 		"/>
	</g>
	<g>
		<defs>
			<rect id="SVGID_14_" x="451.8" y="22.5" width="60.3" height="60.3"/>
		</defs>
		<clipPath id="SVGID_15_">
			<use xlink:href="#SVGID_14_"  style="overflow:visible;"/>
		</clipPath>
		<path class="st10" d="M463.1,39.8h37.7L486,55.2c-1.1,1.2-2.6,1.8-4.1,1.8s-3-0.6-4.1-1.7L463.1,39.8z"/>
	</g>
	<g>
		<defs>
			<rect id="SVGID_16_" x="451.8" y="22.5" width="60.3" height="60.3"/>
		</defs>
		<clipPath id="SVGID_17_">
			<use xlink:href="#SVGID_16_"  style="overflow:visible;"/>
		</clipPath>
		<path class="st11" d="M486.8,56.1c-1.2,1.4-3,2.1-4.8,2.1s-3.6-0.8-4.8-2.1l-2.6-2.6l-11.5,11.9h37.7l-11.5-11.9L486.8,56.1z"/>
	</g>
</g>
<g>
	<path class="st12" d="M600,52.7c0,16.6-13.6,30.1-30.1,30.1c-16.6,0-30.1-13.6-30.1-30.1s13.6-30.1,30.1-30.1
		C586.4,22.5,600,36.1,600,52.7"/>
	<path class="st5" d="M585.4,48.6h-1.2v-1.7c0-2.6-2.1-4.7-4.8-4.7h-7.8v-3.9c1.1-0.6,1.7-1.7,1.7-3c0-2-1.5-3.5-3.5-3.5
		s-3.5,1.5-3.5,3.5c0,1.2,0.8,2.4,1.7,3v3.8h-7.8c-2.6,0-4.7,2.1-4.7,4.7v1.7h-1.1c-1.5,0-2.7,1.2-2.7,2.7v5.7
		c0,1.5,1.2,2.7,2.7,2.7h1.2v1.7c0,2.6,2.1,4.7,4.7,4.7h2.3v2.6c0,1.5,1.2,2.7,2.7,2.7h9.2c1.5,0,2.7-1.2,2.7-2.7v-2.6h2.3
		c2.6,0,4.8-2.1,4.8-4.7v-1.7h1.2c1.5,0,2.7-1.2,2.7-2.7v-5.7C587.9,49.8,586.7,48.6,585.4,48.6 M559.5,50.4c0-1.8,1.4-3.2,3.2-3.2
		s3.2,1.4,3.2,3.2s-1.4,3.2-3.2,3.2S559.5,52,559.5,50.4 M574.1,61.8h-8.6c-1.4,0-2.6-1.2-2.6-2.6c0-1.4,1.2-2.6,2.6-2.6h8.6
		c1.4,0,2.6,1.2,2.6,2.6C576.8,60.6,575.6,61.8,574.1,61.8 M577.1,53.6c-1.8,0-3.2-1.4-3.2-3.2s1.4-3.2,3.2-3.2s3.2,1.4,3.2,3.2
		C580.3,52,578.9,53.6,577.1,53.6"/>
</g>
</svg>
